<?xml version="1.0" encoding="UTF-8"?>
<svg xmlns="http://www.w3.org/2000/svg" viewBox="0 0 275 191.03">
  <g id="orange">
    <g id="outside-orange">
      <path d="M128.69,135.8c-4.1,2.87-9.5,6.05-15.5,7.76-18.21,5.2-36.28-4.65-46.34-10.31-24.63-13.85-56.96-43.96-55.04-75.83.22-3.72.86-12.46,6.65-19.66.38-.47.78-.92,1.18-1.35l-.55-.47c-43.65,58.91,1.19,107.02,1.19,107.02,53.79,46.05,97.39,5.05,108.41-7.16Z" style="fill: #f7740a;"/>
      <path d="M143.46,114.08c.32-4.24-.95-7.58-2.26-10.7-6.77-16.05-13.45-24.6-13.45-24.6-13.37-17.11-20.06-25.67-30.55-33.4-8.42-6.2-32.98-24.3-59.98-17.99-5.64,1.32-14.85,3.62-20.72,12.26-6.88,10.14-5.07,22.98-4.41,27.67,1.18,8.36,4.19,14.59,6.79,19.24,23.21,41.54,63.91,54.41,63.91,54.41,15.01,4.75,23.58,3.5,26.99,2.85,1.52-.29,14.98-3.1,25.89-14.99,3.26-3.55,7.32-8.1,7.81-14.75Z" style="fill: #fefff3; stroke: #f7740a; stroke-miterlimit: 10; stroke-width: 1.45px;"/>
      <path d="M143.46,114.08c.32-4.24-.95-7.58-2.26-10.7-6.77-16.05-13.45-24.6-13.45-24.6-13.37-17.11-20.06-25.67-30.55-33.4-8.42-6.2-32.98-24.3-59.98-17.99-5.64,1.32-14.85,3.62-20.72,12.26-6.88,10.14-5.07,22.98-4.41,27.67,1.18,8.36,4.19,14.59,6.79,19.24,23.21,41.54,63.91,54.41,63.91,54.41,15.01,4.75,23.58,3.5,26.99,2.85,1.52-.29,14.98-3.1,25.89-14.99,3.26-3.55,7.32-8.1,7.81-14.75Z" style="fill: none; stroke: #f7740a; stroke-miterlimit: 10; stroke-width: 1.45px;"/>
    </g>
    <g id="inside-orange">
      <path d="M70.72,80.29s-40.58-1.54-42.52-3.68-17.72-19.08-1.38-25.79l43.9,29.47Z" style="fill: #ffb305;"/>
      <path d="M72.67,86.85s-12.03,18.84-21.53,22.48-31.46-30.49-22.92-30.28,42.58,3.34,42.58,3.34c0,0,3.22,2.44,1.87,4.46Z" style="fill: #ffb305;"/>
      <path d="M67.13,97.44c-8.51,10.57-11.74,10.88-11.64,14.53.13,5.12,6.61,8.67,15.84,13.74,7.26,3.99,15.16,8.24,17.53,5.55,2.55-2.9-3.93-10.91-8.59-29.75-1.21-4.88-1.91-8.91-2.3-11.42,0-1.39-.16-3.02-.98-3.4-1.67-.76-4.64,4.3-9.85,10.77Z" style="fill: #ffb305;"/>
      <path d="M94.77,133.05s21.91,9.19,25.38-6.26c0,0-35.27-31.34-38.02-37.7,0,0-2.76-2.45-2.31,1.54s10.51,39.47,14.95,42.42Z" style="fill: #ffb305;"/>
      <path d="M127.06,96.4s14.95,22.54-3.53,29.12c0,0-20.45-15.91-39.49-35.89,0,0-3.53-4.41,2.83-3.71,6.35.7,40.19,10.47,40.19,10.47Z" style="fill: #ffb305;"/>
      <path d="M108.91,64.79s19.97,13.15,16.54,28.74c0,0-37.15-8.55-39.67-9.49s-.92-3.2-.92-3.2c0,0,21.61-15.6,24.06-16.05Z" style="fill: #ffb305;"/>
      <path d="M84.82,48.46s14.82-1.21,20.6,15.72l-22.73,16.71s-3.27.71-3.24-2.54,2.02-28.68,5.37-29.89Z" style="fill: #ffb305;"/>
      <path d="M81.98,47.41s-3.46-15.03-29.46-9.44c0,0,16.34,32.89,20.57,37.86,4.23,4.97,4.35-.02,4.35-.02,0,0,4.15-25.05,4.54-28.4Z" style="fill: #ffb305;"/>
      <path d="M49.79,39.05s-10.41-10.39-21.53,6.58c0,0-1.81,3.12,40.11,31.44,0,0,3.93,1.93,1.9-2.44s-20.48-35.57-20.48-35.57Z" style="fill: #ffb305;"/>
    </g>
  </g>
  <g id="dragonfruit">
    <g id="outside_2" data-name="outside 2">
      <g>
        <path d="M226.02,15.14c1.47-.82,2.98-1.54,4.51-2.09-1.51.6-3.02,1.36-4.49,2.21,0-.04-.02-.08-.02-.12Z" style="fill: #ae0143;"/>
        <path d="M275,49.88s-2.48,15.5-9.91,18.59c7.45-5.17,9.91-18.59,9.91-18.59Z" style="fill: #ae0143;"/>
        <path d="M131.52,64.77s-3.59-22.97,11.82-32.39c-15.12,9.36-11.82,32.39-11.82,32.39Z" style="fill: #ae0143;"/>
        <path d="M236.1,32.04c-1.25,4.27-1.09,8.71,2.27,12.37,1.19,1.29,2.32,2.37,3.39,3.28-1.05-.85-1.65-1.5-1.65-1.5-5.2-3.84-5.56-9.1-4-14.15Z" style="fill: #ae0143;"/>
        <path d="M184.72,26.21c-1.33,2.43-4.53,4.68-8.14,6.66,4.09-2.66,7.62-5.75,8.36-8.81,1.84-7.67,10.25-20.71,26.91-23.71-20.69,5.24-23.54,19.29-27.13,25.86Z" style="fill: #ae0143;"/>
        <path d="M159.77,42.56c1.25-1.22,2.04-2.18,2.04-2.18-.39.64-1.16,1.41-2.04,2.18Z" style="fill: #ae0143;"/>
        <path d="M128.97,67.61s0,0,0,.01c0,0,0,0,0-.01Z" style="fill: #ae0143;"/>
        <path d="M145.56,39.05c-.61,2.46-.45,4.96,1.38,6.9.17.18.35.35.53.5-3.12-1.03-3.06-4.12-1.91-7.41Z" style="fill: #ae0143;"/>
        <path d="M260.13,48.15c-1.57,1.04-2.61,2.62-5.92,3.36,0,0,2.14-2.15,5.92-3.36Z" style="fill: #ae0143;"/>
        <path d="M275,49.88c-3.98-1.42-6.82-2.19-8.94-2.52,2.63.11,5.63.81,8.94,2.52Z" style="fill: #ae0143;"/>
        <path d="M261.19,118.36c-1.85,1.17-4.08,2.46-6.75,3.89.63-.76.99-1.18.99-1.18,2.25-.92,4.14-1.83,5.75-2.71Z" style="fill: #ae0143;"/>
        <path d="M269.97,108.72c.21.57.22,1.52-.78,2.97,1.03-1.77.8-2.89.78-2.97Z" style="fill: #ae0143;"/>
        <path d="M256.89,79.09c-3.53,9.22-2.91,21.99,12.61,28.96,0,0,.3.2.48.66-17.36-7.81-17.29-20.4-13.08-29.62Z" style="fill: #ae0143;"/>
        <path d="M214.14,0s1.45.92,3.29,2.65c-1.83-1.52-3.41-2.31-3.95-2.56.22-.03.43-.07.65-.09Z" style="fill: #ae0143;"/>
        <path d="M107.56,117.2s3.79,1.66,5.51-3.5c.45-1.36.76-3.19.82-5.65.25-10.84,2.83-25.49,14.31-39.51-13.51,16.75-12.57,35.42-14.58,45.16-2.16,10.48,15.6,54.02,24.44,60.65,8.85,6.63,29.88,10.03,29.88,10.03-.09-4.08,25.79-4.04,25.79-4.04,1.34-2.36,20.68-14.11,20.68-14.11,15.11-.25,23.13-11.41,23.13-11.41,1.92-13.2,12.76-27.49,16.56-32.17-1.09,3.12-11.4,32.84-12.71,39.27-1.38,6.79-15.15,17.58-20.93,16.96,0,0-28.64,20.05-54.81,8.64,0,0-17.9.93-22.31-3.7,0,0-6.61-3.7-7.99-2.78-1.98-1.83-3.61-3.3-4.71-4.28-3.1-2.77-3.99-3.47-4.74-4.99-1.07-2.17-.9-4.05-.98-6.09-.12-3.01-.71-4.45-3.48-12.48-1.99-5.79-4.16-12.21-6.74-19.93-1.3-1.48-2.71-3.77-4.3-6.53-2.03-3.52-3.82-7.53-2.86-9.54Z" style="fill: #ae0143;"/>
        <path d="M128.96,67.62c-.26.31-.51.61-.76.92.25-.31.5-.61.76-.92Z" style="fill: #ae0143;"/>
        <polygon points="269.97 108.71 269.97 108.72 269.97 108.71 269.97 108.71" style="fill: #ae0143;"/>
        <path d="M145.56,39.05c1.22-4.94,5.51-9.75,5.51-9.75,0,0-3.86,5.07-5.51,9.75Z" style="fill: #ae0143;"/>
        <path d="M213.28,0s.08.03.21.09c-.55.08-1.1.16-1.64.26.47-.12.94-.24,1.43-.35Z" style="fill: #ae0143;"/>
        <path d="M128.97,67.61c.8-.95,1.65-1.9,2.55-2.84-.89.94-1.74,1.89-2.55,2.84Z" style="fill: #ae0143;"/>
        <path d="M176.59,32.87c-6.65,4.33-14.78,7.51-14.78,7.51.84-1.38,8.43-4.03,14.78-7.51Z" style="fill: #ae0143;"/>
        <path d="M151.07,29.3c-3,.69-5.55,1.75-7.73,3.08,2.17-1.35,4.73-2.41,7.73-3.08Z" style="fill: #ae0143;"/>
        <path d="M269.19,111.68c-1,1.72-3.22,4.07-8,6.67,4.59-2.91,6.91-5.09,8-6.67Z" style="fill: #ae0143;"/>
        <path d="M260.13,48.15c1.22-.81,2.76-1.29,5.92-.79-2.27-.09-4.26.26-5.92.79Z" style="fill: #ae0143;"/>
        <path d="M147.47,46.46c1.58.52,3.98.52,7.46-.26,0,0,2.75-1.81,4.84-3.63-2.93,2.86-8.41,7.16-12.3,3.9Z" style="fill: #ae0143;"/>
        <path d="M254.45,122.24c-.1.13-.22.27-.34.41.06-.17.1-.28.1-.28.08-.04.16-.08.24-.13Z" style="fill: #ae0143;"/>
        <path d="M265.09,68.47c-2.58,1.79-5.97,5.73-8.2,10.62,2.04-5.34,5.47-9.49,8.2-10.62Z" style="fill: #ae0143;"/>
        <path d="M220.89,6.52c-1.15-1.55-2.37-2.85-3.46-3.87,1.24,1.02,2.58,2.38,3.8,4.12-.12-.08-.22-.17-.34-.25Z" style="fill: #ae0143;"/>
        <path d="M241.76,47.69c2.4,1.95,7.15,4.99,12.45,3.81,0,0-4.59,2.86-12.45-3.81Z" style="fill: #ae0143;"/>
        <path d="M230.54,13.05c5.78-2.31,11.65-2.41,15.82,2.99-4.59-4.93-10.31-5-15.82-2.99Z" style="fill: #ae0143;"/>
        <path d="M246.36,16.04s-7.7,7.72-10.26,16c2.44-8.32,10.26-16,10.26-16Z" style="fill: #ae0143;"/>
      </g>
      <path d="M255.44,120.73s-15.56,17.64-17.89,33.67c0,0-8.02,11.13-23.13,11.38,0,0-19.33,11.71-20.68,14.07,0,0-25.88-.04-25.79,4.03,0,0-21.03-3.39-29.88-10-8.85-6.61-26.61-50.03-24.44-60.49s.9-31.21,17.9-48.79c0,0-4.31-30.05,19.55-35.37,0,0-16.33,21.35,3.86,16.85,0,0,5.57-3.65,6.88-5.8s19.25-7.43,22.91-14.13c3.66-6.7,6.55-21.21,28.55-26.14,0,0,12.1,4.92,11.87,20.3,0,0-6.95-10.93-9.64-8.61s-9.69,6.07-4.96,16.15c0,0,24.34-26.65,35.8-11.84,0,0-19.97,19.96-6.25,30.07,0,0,6.49,6.98,14.1,5.3,7.61-1.68,3.25-7.85,20.79-1.62,0,0-2.47,13.38-9.91,18.53-7.44,5.15-21.68,28.21,4.89,40.13,0,0,1.51,5.75-14.53,12.32Z" style="fill: #f05d96;"/>
      <path d="M269.97,108.41s-16.06-6.03-15.42-19.27-9.84,31.9.89,31.59c0,0,15.11-5.03,14.53-12.32Z" style="fill: #63ea4b;"/>
      <path d="M275,49.75s-3.25,15.75-9.91,18.72c0,0-7.08,6.98-8.2,10.62s-11.33-20.34-7.56-27.58c0,0,8.03,1.02,10.62-3.36,0,0,3.96-3.62,15.06,1.6Z" style="fill: #63ea4b;"/>
      <path d="M213.28,0s8.75,3.15,11.56,15.81l-2.01,1.32s-5.75-7.15-6.68-5.66-7.16,2.91-7.19,9.72c-.03,6.8,1.59,6.65,1.59,6.65,0,0-13.88,9.34-27.01,0,0,0,2.42-1.77,3.21-5.99.79-4.22,9.15-18.81,26.53-21.84Z" style="fill: #63ea4b;"/>
      <path d="M240.5,46.46s-14.81-8.08,5.86-30.46c0,0-6.13-10.9-23.53,1.14-3.6,2.49-7.67,5.96-12.28,10.7,0,0,.42,24.42,29.94,18.62Z" style="fill: #63ea4b;"/>
      <path d="M151.07,29.22s-16.56,21.8,3.86,16.97c0,0-12.51,24.18-23.41,18.58,0,0-4.3-30.68,19.55-35.55Z" style="fill: #63ea4b;"/>
      <path d="M241.02,143.46s-4.03,9.57-3.47,11.36-14.5,12.72-23.13,11.41c0,0,22.01-9.12,26.6-22.78Z" style="fill: #63ea4b;"/>
      <path d="M224.85,15.81s-1.66.98-2.01,1.32l-1.65-1.93s1.91-.09,3.14-1.41l.52,2.02Z" style="fill: #50aa3d;"/>
    </g>
    <g id="fruit1">
      <path d="M132.55,82.03c-2.8,5.71-7.78,17.69-8.1,33.52-.15,7.46-.36,17.95,5.28,29.04,5.85,11.51,14.6,16.95,18.48,19.3,2.95,1.78,17.74,10.43,36.08,6.08,10.41-2.47,17.04-7.94,26.58-15.83,8.52-7.04,15.34-12.67,20.9-22.81,2.99-5.45,11.33-22.78,7.27-44.63-.89-4.81-5.68-27.47-23.23-37.42-6.97-3.96-13.5-4.51-20.07-5.07-5.32-.45-16.61-1.28-29.4,4.09-21.33,8.96-31.31,28.65-33.8,33.72Z" style="fill: #fef8fe;"/>
      <path d="M131.06,83.55c-2.68,5.46-7.42,16.93-7.48,32.21-.03,7.2-.07,17.33,5.7,28.15,5.99,11.23,14.74,16.66,18.62,19,2.96,1.78,17.75,10.42,35.85,6.59,10.27-2.18,16.75-7.33,26.07-14.75,8.32-6.62,14.99-11.93,20.33-21.61,2.87-5.21,10.85-21.77,6.48-42.96-.96-4.67-6.07-26.64-23.62-36.6-6.97-3.96-13.44-4.62-19.96-5.29-5.28-.54-16.47-1.56-29.05,3.37-20.99,8.23-30.56,27.04-32.93,31.89Z" style="fill: #e8e8ea; opacity: .58;"/>
    </g>
    <g id="seeds_2" data-name="seeds 2">
      <path d="M176.06,80.83c.08.38.13.5,1.19,3.31.41,1.09.6,1.58.73,1.55.14-.03.07-.64.11-1.48.08-1.98.59-2.21.62-3.91.02-1.36-.29-2.22-.37-2.43-.06-.16-.77-2-1.48-1.89-.65.1-.92,1.78-.97,2.09-.17,1.1,0,1.97.18,2.76Z" style="fill: #202223;"/>
      <path d="M188.11,109.84c-.29-.32-.4-.4-2.94-2.43-.99-.79-1.43-1.14-1.53-1.03-.11.12.29.66.73,1.49,1.03,1.95.69,2.5,1.62,4.15.74,1.32,1.51,1.95,1.7,2.1.15.12,1.82,1.43,2.41.88.54-.51-.15-2.28-.29-2.62-.46-1.16-1.11-1.89-1.71-2.54Z" style="fill: #202223;"/>
      <path d="M174.28,90.46c.06.28.06.38.1,2.64.02.88.03,1.27-.08,1.31-.12.04-.26-.38-.55-.91-.69-1.25-1.16-1.18-1.72-2.27-.44-.87-.47-1.56-.47-1.73,0-.13-.02-1.62.57-1.85.54-.21,1.28.77,1.42.95.48.64.62,1.28.73,1.86Z" style="fill: #202223;"/>
      <path d="M179.97,92.29c-.03.44-.03.58.11,3.95.05,1.31.07,1.89.19,1.9.12,0,.23-.66.49-1.56.6-2.1,1.09-2.19,1.56-4.02.38-1.46.35-2.49.34-2.74,0-.2-.11-2.4-.73-2.51-.57-.1-1.24,1.62-1.37,1.95-.44,1.13-.52,2.13-.59,3.04Z" style="fill: #202223;"/>
      <path d="M189.31,91.08c-.29.37-.37.5-2.24,3.65-.73,1.23-1.05,1.77-.94,1.88.12.11.62-.4,1.41-.99,1.84-1.38,2.37-1.04,3.92-2.28,1.24-.99,1.82-1.94,1.96-2.18.11-.18,1.32-2.25.77-2.89-.5-.58-2.18.4-2.49.58-1.1.64-1.77,1.47-2.38,2.23Z" style="fill: #202223;"/>
      <path d="M186.33,82.43c-.13.35-.15.46-.79,3.26-.25,1.09-.36,1.57-.26,1.62.11.05.36-.46.79-1.11,1.01-1.51,1.47-1.41,2.31-2.74.67-1.06.87-1.91.92-2.12.04-.16.44-1.99-.09-2.3-.49-.28-1.48.89-1.67,1.12-.65.77-.95,1.55-1.22,2.27Z" style="fill: #202223;"/>
      <path d="M164.22,104.35c.4-.04.53-.04,3.62.14,1.2.07,1.74.1,1.75.25.02.16-.59.3-1.4.64-1.89.78-1.94,1.42-3.58,2.03-1.31.5-2.25.46-2.49.45-.18-.01-2.2-.14-2.34-.95-.13-.74,1.41-1.61,1.7-1.78,1-.57,1.91-.68,2.74-.77Z" style="fill: #202223;"/>
      <path d="M169.36,114.67c.3-.35.42-.45,3.09-2.75,1.04-.9,1.51-1.29,1.62-1.18.12.12-.29.72-.74,1.65-1.04,2.16-.66,2.73-1.6,4.55-.76,1.46-1.56,2.17-1.76,2.35-.16.13-1.92,1.62-2.58,1.05-.6-.53.08-2.48.21-2.85.45-1.28,1.13-2.09,1.75-2.82Z" style="fill: #202223;"/>
      <path d="M186.39,123.03s.72-5.24-3.15-7.03c0,0-1.53,4.91,3.15,7.03Z" style="fill: #202223;"/>
      <path d="M172.86,127.64s-3.92,2.85-1.4,7.69c0,0,3.47-3.66,1.4-7.69" style="fill: #202223;"/>
      <path d="M169.65,121.85s-4.69,3.58-3.11,8.65c0,0,4.39-4.43,3.11-8.65" style="fill: #202223;"/>
      <path d="M197.48,109.77s2.67,5.31,7.25,4.03c0,0-3.43-5.06-7.25-4.03" style="fill: #202223;"/>
      <path d="M184.05,101.79s2.89,3.67,6.5,1.08c0,0-3.49-3.2-6.5-1.08" style="fill: #202223;"/>
      <path d="M174.59,100.41s-1.58-4.75-5.45-4.4c0,0,2.23,4.66,5.45,4.4" style="fill: #202223;"/>
      <ellipse cx="189.86" cy="69.79" rx="2.13" ry="1.06" transform="translate(78.95 238.95) rotate(-76.93)" style="fill: #202223;"/>
      <ellipse cx="188.99" cy="61.49" rx="2.13" ry="1.06" transform="translate(86.36 231.68) rotate(-76.93)" style="fill: #202223;"/>
      <ellipse cx="187.21" cy="55.74" rx="1.73" ry="1.06" transform="translate(98.68 229.86) rotate(-79.63)" style="fill: #202223;"/>
      <ellipse cx="196.71" cy="65.11" rx="2.11" ry="1.07" transform="translate(62.42 222.9) rotate(-67.91)" style="fill: #202223;"/>
      <ellipse cx="188.75" cy="48.87" rx="1.05" ry="1.79" transform="translate(-1.38 5.69) rotate(-1.72)" style="fill: #202223;"/>
      <ellipse cx="194.56" cy="51.02" rx="1.73" ry="1.06" transform="translate(103.47 230.35) rotate(-77.77)" style="fill: #202223;"/>
      <ellipse cx="201.16" cy="54.48" rx="2.1" ry="1.08" transform="translate(64.78 212.07) rotate(-64.28)" style="fill: #202223;"/>
      <ellipse cx="201.52" cy="61.02" rx="2.09" ry="1.08" transform="translate(52.87 210.14) rotate(-61.94)" style="fill: #202223;"/>
      <ellipse cx="212.93" cy="57.23" rx="1.23" ry="2.36" transform="translate(-1.95 106.63) rotate(-27.99)" style="fill: #202223;"/>
      <ellipse cx="219.9" cy="62.63" rx="1.23" ry="2.36" transform="translate(-3.67 110.54) rotate(-27.99)" style="fill: #202223;"/>
      <ellipse cx="225.6" cy="65.27" rx="1.23" ry="1.91" transform="translate(-4.12 114.08) rotate(-28.13)" style="fill: #202223;"/>
      <ellipse cx="211.34" cy="67.19" rx="1.21" ry="2.4" transform="translate(-10.38 71.37) rotate(-18.72)" style="fill: #202223;"/>
      <ellipse cx="225.56" cy="73.69" rx="1.26" ry="1.91" transform="translate(10.29 173.52) rotate(-42.97)" style="fill: #202223;"/>
      <ellipse cx="216.37" cy="74.16" rx="1.23" ry="1.92" transform="translate(-10.56 102.79) rotate(-26.11)" style="fill: #202223;"/>
      <ellipse cx="211.34" cy="83.15" rx="1.2" ry="2.41" transform="translate(-14.4 58.24) rotate(-15.18)" style="fill: #202223;"/>
      <ellipse cx="202.11" cy="80.83" rx="1.2" ry="2.42" transform="translate(-12.98 47.37) rotate(-12.95)" style="fill: #202223;"/>
      <path d="M215.02,96.88c-1.06.27-1.83,1.18-1.73,2.04s1.03,1.33,2.09,1.06,1.83-1.18,1.73-2.04-1.03-1.33-2.09-1.06Z" style="fill: #202223;"/>
      <path d="M221.44,90.94c-1.06.27-1.83,1.18-1.73,2.04s1.03,1.33,2.09,1.06,1.83-1.18,1.73-2.04-1.03-1.33-2.09-1.06Z" style="fill: #202223;"/>
      <path d="M225.78,88.33c.85-.27,1.44-1.18,1.32-2.03s-.91-1.32-1.75-1.05-1.44,1.18-1.32,2.03.91,1.32,1.75,1.05Z" style="fill: #202223;"/>
      <ellipse cx="221.94" cy="105" rx="1.57" ry="1.94" transform="translate(108.41 322.7) rotate(-87.78)" style="fill: #202223;"/>
      <path d="M231.34,83.53c-.79.61-1.22,1.74-.95,2.51s1.13.9,1.92.29,1.22-1.74.95-2.51-1.13-.9-1.92-.29Z" style="fill: #202223;"/>
      <path d="M232.36,92.46c-.85.22-1.47,1.09-1.37,1.95s.87,1.38,1.73,1.16,1.47-1.09,1.37-1.95-.87-1.38-1.73-1.16Z" style="fill: #202223;"/>
      <ellipse cx="232.52" cy="104.92" rx="1.56" ry="1.96" transform="translate(73.74 304.57) rotate(-75.79)" style="fill: #202223;"/>
      <path d="M227.47,107.59c-1.06-.21-1.98.33-2.06,1.19s.73,1.73,1.79,1.94,1.98-.33,2.06-1.19-.73-1.73-1.79-1.94Z" style="fill: #202223;"/>
      <ellipse cx="220.79" cy="136.1" rx="1.08" ry="2.11" transform="translate(-36.35 102.14) rotate(-24.13)" style="fill: #202223;"/>
      <ellipse cx="209.59" cy="146.26" rx="1.08" ry="2.11" transform="translate(-41.48 98.45) rotate(-24.13)" style="fill: #202223;"/>
      <ellipse cx="210.11" cy="127.97" rx="1.08" ry="1.7" transform="translate(-34.2 99.04) rotate(-24.59)" style="fill: #202223;"/>
      <ellipse cx="228.25" cy="126.18" rx="1.06" ry="2.13" transform="translate(-24.92 63.55) rotate(-15.04)" style="fill: #202223;"/>
      <ellipse cx="206.93" cy="121.83" rx="1.1" ry="1.71" transform="translate(-30.72 156.26) rotate(-38.73)" style="fill: #202223;"/>
      <ellipse cx="212.47" cy="118.94" rx="1.07" ry="1.71" transform="translate(-29.41 90.92) rotate(-22.63)" style="fill: #202223;"/>
      <ellipse cx="219.4" cy="116.39" rx="1.06" ry="2.14" transform="translate(-18.86 46.28) rotate(-11.55)" style="fill: #202223;"/>
      <ellipse cx="220.79" cy="127.31" rx="1.06" ry="2.14" transform="translate(-17.74 37.53) rotate(-9.34)" style="fill: #202223;"/>
      <ellipse cx="197.37" cy="131.56" rx="1.45" ry="2.11" transform="translate(-39.8 127.9) rotate(-32.8)" style="fill: #202223;"/>
      <ellipse cx="204.75" cy="135.91" rx="1.45" ry="2.11" transform="translate(-40.98 132.59) rotate(-32.8)" style="fill: #202223;"/>
      <ellipse cx="200.62" cy="143.48" rx="1.44" ry="2.13" transform="translate(-31.04 58.82) rotate(-15.5)" style="fill: #202223;"/>
      <ellipse cx="164.14" cy="160.72" rx="2.07" ry="1.09" transform="translate(-61.38 204.45) rotate(-55.37)" style="fill: #202223;"/>
      <ellipse cx="170.23" cy="143.48" rx="2.07" ry="1.09" transform="translate(-44.57 202.02) rotate(-55.37)" style="fill: #202223;"/>
      <ellipse cx="179.18" cy="136.47" rx="1.68" ry="1.09" transform="translate(-32.32 213.9) rotate(-57.4)" style="fill: #202223;"/>
      <ellipse cx="183.92" cy="142.62" rx="2.02" ry="1.12" transform="translate(-48.43 156.04) rotate(-41.1)" style="fill: #202223;"/>
      <ellipse cx="180.75" cy="154.87" rx="2.01" ry="1.13" transform="translate(-57.1 145.73) rotate(-38.39)" style="fill: #202223;"/>
      <path d="M132.3,103.43c-1.06.27-1.83,1.18-1.73,2.04s1.03,1.33,2.09,1.06,1.83-1.18,1.73-2.04-1.03-1.33-2.09-1.06Z" style="fill: #202223;"/>
      <path d="M138.71,97.49c-1.06.27-1.83,1.18-1.73,2.04s1.03,1.33,2.09,1.06,1.83-1.18,1.73-2.04-1.03-1.33-2.09-1.06Z" style="fill: #202223;"/>
      <ellipse cx="139.22" cy="111.54" rx="1.57" ry="1.94" transform="translate(22.36 246.33) rotate(-87.78)" style="fill: #202223;"/>
      <ellipse cx="138.06" cy="142.65" rx="1.08" ry="2.11" transform="translate(-46.25 68.9) rotate(-24.13)" style="fill: #202223;"/>
      <ellipse cx="132.25" cy="137.31" rx="1.08" ry="2.11" transform="translate(-44.57 66.06) rotate(-24.13)" style="fill: #202223;"/>
      <ellipse cx="129.75" cy="125.49" rx="1.07" ry="1.71" transform="translate(-38.3 59.59) rotate(-22.63)" style="fill: #202223;"/>
      <ellipse cx="136.68" cy="122.93" rx="1.06" ry="2.14" transform="translate(-21.84 29.85) rotate(-11.55)" style="fill: #202223;"/>
      <ellipse cx="138.06" cy="133.86" rx="1.06" ry="2.14" transform="translate(-19.9 24.19) rotate(-9.34)" style="fill: #202223;"/>
      <ellipse cx="148.63" cy="84.08" rx="1.64" ry="2.27" transform="translate(-6.77 154.87) rotate(-53.99)" style="fill: #202223;"/>
      <ellipse cx="139.32" cy="82.21" rx="1.64" ry="2.27" transform="translate(-9.09 146.57) rotate(-53.99)" style="fill: #202223;"/>
      <ellipse cx="148.98" cy="73.37" rx="1.64" ry="2.27" transform="translate(-15.82 93.86) rotate(-33.31)" style="fill: #202223;"/>
      <ellipse cx="174.42" cy="53.21" rx="2.3" ry="1.2" transform="translate(63.11 197.66) rotate(-69.35)" style="fill: #202223;"/>
      <ellipse cx="174.37" cy="62.22" rx="2.3" ry="1.2" transform="translate(54.65 203.43) rotate(-69.35)" style="fill: #202223;"/>
      <ellipse cx="166.81" cy="72.6" rx="1.86" ry="1.2" transform="translate(41.67 204.64) rotate(-70.06)" style="fill: #202223;"/>
      <ellipse cx="159.82" cy="67.95" rx="2.27" ry="1.22" transform="translate(13.42 161.37) rotate(-55.58)" style="fill: #202223;"/>
      <ellipse cx="167.47" cy="59.21" rx="2.27" ry="1.22" transform="translate(19.48 157.45) rotate(-53.05)" style="fill: #202223;"/>
      <ellipse cx="190.02" cy="160.72" rx="1.08" ry="2.11" transform="translate(-49.09 91.71) rotate(-24.13)" style="fill: #202223;"/>
      <ellipse cx="154.93" cy="156.31" rx="1.08" ry="1.7" transform="translate(-50.99 78.65) rotate(-24.59)" style="fill: #202223;"/>
      <ellipse cx="172.98" cy="159.21" rx="1.1" ry="1.71" transform="translate(-61.57 143.24) rotate(-38.73)" style="fill: #202223;"/>
      <ellipse cx="187.51" cy="148.89" rx="1.07" ry="1.71" transform="translate(-42.85 83.62) rotate(-22.63)" style="fill: #202223;"/>
      <ellipse cx="179.79" cy="165.86" rx="1.45" ry="2.11" transform="translate(-61.18 123.84) rotate(-32.8)" style="fill: #202223;"/>
      <ellipse cx="151.85" cy="146.26" rx="1.08" ry="2.11" transform="translate(-46.52 74.85) rotate(-24.13)" style="fill: #202223;"/>
      <ellipse cx="146.97" cy="143.46" rx="1.08" ry="1.7" transform="translate(-46.37 74.17) rotate(-24.59)" style="fill: #202223;"/>
      <ellipse cx="143.8" cy="137.32" rx="1.1" ry="1.71" transform="translate(-54.3 120.17) rotate(-38.73)" style="fill: #202223;"/>
      <ellipse cx="149.34" cy="134.43" rx="1.07" ry="1.71" transform="translate(-40.23 67.82) rotate(-22.63)" style="fill: #202223;"/>
      <ellipse cx="141.62" cy="151.41" rx="1.45" ry="2.11" transform="translate(-59.44 100.86) rotate(-32.8)" style="fill: #202223;"/>
      <ellipse cx="141.62" cy="89.5" rx="1.08" ry="2.11" transform="translate(-24.21 65.71) rotate(-24.13)" style="fill: #202223;"/>
      <ellipse cx="143.29" cy="102.74" rx="1.08" ry="1.7" transform="translate(-29.76 68.95) rotate(-24.59)" style="fill: #202223;"/>
      <ellipse cx="155.44" cy="80.2" rx="1.1" ry="1.71" transform="translate(-16 114.89) rotate(-38.73)" style="fill: #202223;"/>
      <ellipse cx="160.98" cy="77.32" rx="1.07" ry="1.71" transform="translate(-17.36 67.9) rotate(-22.63)" style="fill: #202223;"/>
      <ellipse cx="153.26" cy="94.29" rx="1.45" ry="2.11" transform="translate(-26.64 98.06) rotate(-32.8)" style="fill: #202223;"/>
    </g>
  </g>
</svg>