<?xml version="1.0" encoding="UTF-8"?>
<svg xmlns="http://www.w3.org/2000/svg" viewBox="0 0 299.31 481.31">
  <g id="guava_3" data-name="guava 3">
    <g id="skin_3" data-name="skin 3">
      <path d="M265.15,88.88c16.38,28.75,7.68,59.5,6.44,63.63-2.74,9.14-7.97,26.6-23.97,36.48-26.42,16.3-60.36-1.53-68.01-5.55-6.57-3.45-48.52-25.49-49.58-69.22-.54-22.12,9.41-48.78,31.63-61.69,34.88-20.27,84.21,2.53,103.49,36.36Z" style="fill: #97b730;"/>
    </g>
    <g id="leaf_3" data-name="leaf 3">
      <path d="M0,30.08s6.19-4.69,10.88-12.89C15.57,8.98,33.65-6.08,86.21,2.62c42.41,7.02,58.99,22.44,64.61,28.83,1.15,1.31,2.35,2.81,2.35,2.81.88,1.13,1.75,2.35,6.09,10.62.66,1.26,1.12,2.15.93,3.28-.23,1.4-1.3,2.23-2.91,3.55-1.29,1.06-3.16,2.62-5.46,4.65-5.12,2.94-12.5,6.66-21.83,9.71-5.8,1.9-15.55,4.58-35.46,5.86-28.84,1.85-43.26,2.68-56.8-3.68-6.33-2.97-17.42-9.53-27.47-24.4-1.17-2.22-2.69-4.74-4.67-7.38-1.92-2.56-3.85-4.68-5.61-6.39Z" style="fill: #6a8b34;"/>
      <g id="leaf-lines">
        <path d="M108.02,40.53s-13.87-26.53-13.87-29.49v-2.95s6.73,2.92,7.87,4.92,16.37,28.7,16.37,28.7l-16.37-28.7,1.25-2.18,1-1.76s6.73,2.1,9.69,8.57,12.76,25.07,12.76,25.07c0,0-9.21-15.82-11.98-23.92-.99-2.9-1.16-4.81.21-4.66,5.2.56,21.89,29.9,21.89,29.9" style="fill: none; stroke: #cbcc83; stroke-miterlimit: 10; stroke-width: .52px;"/>
        <path d="M101.18,39.54l-16.06-31.44s.6-3.37,2.15-2.81,6.89,2.81,6.89,2.81" style="fill: none; stroke: #cbcc83; stroke-miterlimit: 10; stroke-width: .52px;"/>
        <path d="M88.66,38.46s-14.19-26.57-13.48-29.38.54-3.83,1.03-4.95,8.52,1.96,8.92,3.96" style="fill: none; stroke: #cbcc83; stroke-miterlimit: 10; stroke-width: .52px;"/>
        <path d="M77.7,37.34s-14.44-28.77-16.1-29.78,1.01-4.42,1.29-4.88,9.02.4,9.67,2.55,1.65.83,2.94,5.77" style="fill: none; stroke: #cbcc83; stroke-miterlimit: 10; stroke-width: .52px;"/>
        <path d="M62.77,35.87s-13.32-27.78-14.43-27.77,1.01-5.97,1.01-5.97c0,0,10.13.55,12.25,5.43" style="fill: none; stroke: #cbcc83; stroke-miterlimit: 10; stroke-width: .52px;"/>
        <path d="M53.48,34.98s-11.95-26.34-11.77-26.88.55-4.55,1.66-4.2,4.33,1.08,4.65,3.02" style="fill: none; stroke: #cbcc83; stroke-miterlimit: 10; stroke-width: .52px;"/>
        <path d="M46.65,34.33s-11.94-25.21-14.42-24.57.83-5.75,2.03-5.87,6.32,1.24,7.46,4.2" style="fill: none; stroke: #cbcc83; stroke-miterlimit: 10; stroke-width: .52px;"/>
        <path d="M37.49,33.48s-11.39-19.44-12.22-19.29.38-6.1.38-6.1c0,0,4.79-.57,6.58,1.67" style="fill: none; stroke: #cbcc83; stroke-miterlimit: 10; stroke-width: .52px;"/>
        <path d="M11.83,18.11s2.9-.74,9.49,13.9" style="fill: none; stroke: #cbcc83; stroke-miterlimit: 10; stroke-width: .52px;"/>
        <path d="M9.57,23.02s3.74,2.91,5.57,8.44" style="fill: none; stroke: #cbcc83; stroke-miterlimit: 10; stroke-width: .52px;"/>
        <path d="M6.4,26.04s2.53,4.87,4.01,5" style="fill: none; stroke: #cbcc83; stroke-miterlimit: 10; stroke-width: .52px;"/>
        <path d="M124.21,15.7s21.88,15.84,25.59,29.97" style="fill: none; stroke: #cbcc83; stroke-miterlimit: 10; stroke-width: .52px;"/>
        <path d="M138.89,23.78s17.42,16.06,19.79,23.32" style="fill: none; stroke: #cbcc83; stroke-miterlimit: 10; stroke-width: .52px;"/>
        <path d="M9.56,37.46s3.75-2.16,5.59-6.25" style="fill: none; stroke: #cbcc83; stroke-miterlimit: 10; stroke-width: .52px;"/>
        <path d="M8.4,31.46s-.95,3.74-2.31,4.71" style="fill: none; stroke: #cbcc83; stroke-miterlimit: 10; stroke-width: .52px;"/>
        <path d="M25.27,14.19c-.15-1.43-5.36-3.02-5.36-3.02,0,0-2.64,6.19-1.06,5.36.07-.04.13-.03.13-.03.34-.09,8.61,11.95,5.53,14.96-.76.74-2.01.75-3.19.55-2.77,4.04-5.53,8.09-8.3,12.13h0c-.41,3.9,3.55,5.19,3.55,5.19,0,0,12.63-15.61,11.25-16.74" style="fill: none; stroke: #cbcc83; stroke-miterlimit: 10; stroke-width: .52px;"/>
        <path d="M34.29,33.18s-12.71,20.92-13.82,20.92-4.92-1.82-3.89-4.77" style="fill: none; stroke: #cbcc83; stroke-miterlimit: 10; stroke-width: .52px;"/>
        <path d="M43.59,34.04s-6.31,16.05-17.33,23.68c0,0-4.36.63-5.79-3.62" style="fill: none; stroke: #cbcc83; stroke-miterlimit: 10; stroke-width: .52px;"/>
        <path d="M54.26,34.98c-.85,2.65-1.77,4.76-2.49,6.25-3.43,7.12-7.91,11.86-9.86,13.92-2.2,2.33-2.56,2.27-4.43,4.48-1.51,1.78-1.95,2.61-3.2,3.07-2.3.84-4.65-.58-5.05-.83-2.19-1.38-2.84-3.59-2.98-4.14" style="fill: none; stroke: #cbcc83; stroke-miterlimit: 10; stroke-width: .52px;"/>
        <path d="M61.06,35.87s-14.17,25.17-18.57,29.56-8.79-1.24-8.21-2.74" style="fill: none; stroke: #cbcc83; stroke-miterlimit: 10; stroke-width: .52px;"/>
        <path d="M74.5,37.02s-18.33,28.38-25.46,30.05-6.55-1.64-6.55-1.64" style="fill: none; stroke: #cbcc83; stroke-miterlimit: 10; stroke-width: .52px;"/>
        <path d="M90.34,38.63s-15.77,23.9-19.5,25.89-12.35,6.8-15.33,5.06-6.05-.52-6.46-2.5" style="fill: none; stroke: #cbcc83; stroke-miterlimit: 10; stroke-width: .52px;"/>
        <path d="M99.68,39.54c-.3,1.09-6.64,23.43-14.01,27.05-1.01.49-2.15.95-2.15.95-4.53,1.82-8.59,2.3-11.35,2.4-.44-1.81-.88-3.62-1.33-5.43" style="fill: none; stroke: #cbcc83; stroke-miterlimit: 10; stroke-width: .52px;"/>
        <path d="M115.05,41.69s-20.36,26.44-29.38,24.9" style="fill: none; stroke: #cbcc83; stroke-miterlimit: 10; stroke-width: .52px;"/>
        <path d="M133.47,43.59s-21.35,19.69-24.28,22.23-14.34,4.01-15.73,3.01-.88-4.48-.88-4.48" style="fill: none; stroke: #cbcc83; stroke-miterlimit: 10; stroke-width: .52px;"/>
        <path d="M146.34,45.45c-12.3,10.73-21.79,18.25-24.66,19.67-.37.18-1.34.62-2.54,1.03-2.71.92-4.86,1.66-5.86.75-1.34-1.21.05-4.69.14-4.89" style="fill: none; stroke: #cbcc83; stroke-miterlimit: 10; stroke-width: .52px;"/>
        <path d="M155.53,47.1s-18.29,22.37-32.97,18" style="fill: none; stroke: #cbcc83; stroke-miterlimit: 10; stroke-width: .52px;"/>
        <path d="M3.49,30.44s154.13,13.13,155.19,18.19" style="fill: none; stroke: #cbcc83; stroke-miterlimit: 10; stroke-width: .52px;"/>
      </g>
    </g>
    <g id="stem_3" data-name="stem 3">
      <path d="M158.68,48.63c.96-.09,4.2-.28,6.84,1.92,1.9,1.58,3.64,4.54,2.78,6.08-.33.59-.8.53-1.35,1.44-.19.3-1.02,1.67-.44,3.06.49,1.19,1.69,1.63,1.99,1.74.8.29,1.5.22,2.05.15,3.16-.36,4.74-.54,5.22-.72,2.11-.78,4.88-2.62,4.59-4.05-.11-.56-.66-.91-1.06-1.11-3.38-3.86-4.87-7.32-5.61-9.8-.75-2.52-.68-3.89-2.06-6.17,0,0-.71-1.17-4.77-5.57-2.57.07-3.39.76-3.69,1.35-.45.88.22,1.71.9,4.41.59,2.33,1,3.96.36,4.59-1.13,1.08-5.03-1.34-5.75-1.8v4.5Z" style="fill: #9b6b2b;"/>
    </g>
  </g>
  <g id="guava_1" data-name="guava 1">
    <g id="skin1">
      <g>
        <path d="M197.95,133.65c6.25,2.2,27.61,9.73,44.85,28.08-.18-.23-.36-.45-.53-.65-4.96-6.1-25.47-31.33-60.24-34.71-5.92-.58-11.42-.44-16.38.1,11.65-.08,22.8,3.84,32.3,7.19Z" style="fill: #97c01b;"/>
        <path d="M258.7,185.48c1.37,3.07,3.02,6.75,4.47,10.77-1.23-3.76-2.77-7.36-4.47-10.77Z" style="fill: #97c01b;"/>
        <path d="M262.01,231.81c.57-1.21,1.09-2.46,1.56-3.75-.65,1.16-1.38,2.24-2.18,3.26l.63.49Z" style="fill: #97c01b;"/>
        <path d="M149.83,224.94c-1.98-1.59-3.82-3.18-5.54-4.78-7.47-6.01-16.56-14.6-21.4-28.98-1.39-4.13-4.23-12.96-2.9-23.78-2.88,7.59-4.67,16.12-4.31,25.35,1.1,27.92,19.25,45.58,24.28,50.36,3.3,3.13,20.22,18.61,46.74,21.29,22.76,2.3,55.53-4.52,70.92-25.29-16.65,17.11-61.19,23.19-107.79-14.18Z" style="fill: #97c01b;"/>
      </g>
    </g>
    <g id="pink1">
      <path d="M253.53,175.37c5.29,9.33,21.05,37.1,8.94,57.82-15.53,26.57-63.9,18.53-66.08,18.14-42.09-7.53-82.84-47.8-77.53-83.93,1.92-13.08,9.96-26.1,21.11-33.3,22.28-14.4,53.75-3.5,62.32-.45,7.47,2.65,34.86,12.85,51.24,41.72Z" style="fill: #ec7c81;"/>
    </g>
    <g id="seed_1" data-name="seed 1">
      <path d="M161.23,169.13c-.8,1.72-4.13,1.88-6.36.99-2.34-.93-4.61-3.48-3.98-5.23.65-1.81,4.31-2.43,6.85-1.28,2.29,1.04,4.28,3.8,3.48,5.52Z" style="fill: #70663b;"/>
      <path d="M204.17,162.73c-1.19.98-3.97-.25-5.51-1.86-1.85-1.93-2.78-5.29-1.55-6.38,1.18-1.05,4.24.09,5.89,1.97,1.71,1.94,2.43,5.24,1.17,6.27Z" style="fill: #70663b;"/>
      <path d="M228.83,174c-.94,1.15-4.4-.2-6.21-1.23-.18-.11-4.38-2.55-3.87-4.24.42-1.39,3.99-2.08,6.57-.83,2.86,1.39,4.46,5.14,3.51,6.3Z" style="fill: #70663b;"/>
      <path d="M240.4,199.09c-1.15.94-3.93-.5-5.45-2.03-1.03-1.03-2.64-3.25-1.91-4.47.77-1.29,3.99-1.22,5.9.32,2.09,1.69,2.66,5.2,1.46,6.17Z" style="fill: #70663b;"/>
      <path d="M188.67,219.79c-.61,1.53-3.68,1.74-5.7,1.28-2.54-.58-5.36-2.69-5.04-4.38.33-1.73,3.92-2.91,6.68-2,2.5.82,4.7,3.51,4.06,5.11Z" style="fill: #70663b;"/>
      <path d="M163.53,195.75c-.29,1.5-3.53,2.32-6.01,1.81-1.87-.38-4.31-1.73-4.22-3.18.09-1.49,2.86-2.71,5.14-2.54,2.68.21,5.38,2.39,5.09,3.9Z" style="fill: #70663b;"/>
      <path d="M214.66,227.3c-.96,1.41-4.35,1.18-6.4-.13-.59-.38-1.2-1.09-2.43-2.53-1.61-1.88-2.42-2.82-2.27-3.35.37-1.35,4.45-2.28,7.47-.68,2.79,1.48,4.69,5.14,3.63,6.7Z" style="fill: #70663b;"/>
      <path d="M224.79,226.25c-1.3.73-3.41-.74-4.44-2.07-1.44-1.85-1.94-4.88-.76-5.77,1.26-.94,4.48.49,5.65,2.88.81,1.67.83,4.24-.45,4.96Z" style="fill: #70663b;"/>
      <path d="M187.01,150.84c-.61.22-1.29-.43-3.08-2.13-4.21-3.99-4.39-4.14-4.3-4.31.48-.95,7.35.14,8.23,3.48.3,1.15-.08,2.69-.84,2.96Z" style="fill: #70663b;"/>
      <path d="M156.78,184.9s2.97-2.15,4.63-1.55c1.65.59,6.28,2.21,5.88,3.73-.16.61-.29,1.02-.58,1.29-1.02.96-2.67.66-2.99.59-.89-.19-1.08-.51-2.78-1.62-1.35-.88-2.78-1.63-4.16-2.45h0Z" style="fill: #70663b;"/>
      <path d="M156.05,180.02c.08,2.06-1.4,4.46-3.12,4.45-1.62,0-2.82-2.18-3.09-3.8-.34-2.06.55-4.75,2.16-5.08,1.71-.35,3.96,2.01,4.05,4.43Z" style="fill: #70663b;"/>
      <path d="M223.37,177.37c.34.4,6.17,7.13,8.97,5.71.48-.24.8-.69.92-1.12.72-2.64-5.62-6.79-7.27-5.74-.19.12-.46.41-1.04.69-.62.31-1.2.42-1.59.46Z" style="fill: #70663b;"/>
      <path d="M236.3,220.26c.1,1.06-.67,2.07-1.47,2.56-2.47,1.53-7.08-.78-7.09-2.56-.01-1.41,2.85-3.1,5.32-2.64,1.23.23,3.09,1.13,3.24,2.64Z" style="fill: #70663b;"/>
      <path d="M234.36,215.3c-.08.76-1.06,1.2-2.47,1.8-1.85.79-4.73,2.01-5.86.79-.8-.86-.27-2.45-.22-2.59.73-2.1,3.52-2.9,5.32-2.64.4.06.73.18.84.22,1.1.42,2.49,1.47,2.39,2.42Z" style="fill: #70663b;"/>
    </g>
  </g>
  <g id="guava_2" data-name="guava 2">
    <g id="stem_2" data-name="stem 2">
      <path d="M117.89,86.54c.93-.02,2.33-.14,3.93-.63,7.12-2.18,10.11-9.23,11.7-8.53.5.22.89,1.22.33,4.78l-6.47,6.72c-.73.36-1.81.82-3.18,1.07-.71.13-5.18.96-6.3-1.03-.18-.31-.46-1.04,0-2.38Z" style="fill: #9b6b2b;"/>
    </g>
    <g id="skin_2" data-name="skin 2">
      <path d="M13.5,146.06c-.06.11-.13.21-.19.32.06-.11.13-.21.19-.32Z" style="fill: #4d6f0e;"/>
      <path d="M131.67,92.27s-.02-.05-.03-.07c-.62-1.3-1.81-2.11-3.24-2.61.29.12,1.71.76,3.28,2.68Z" style="fill: #4d6f0e;"/>
      <polygon points="1.87 183.28 1.87 183.28 1.87 183.28 1.87 183.28" style="fill: #4d6f0e;"/>
      <path d="M13.86,145.47c.33-.53.66-1.07,1-1.62.04-.06.07-.11.11-.17-.37.59-.74,1.19-1.11,1.79Z" style="fill: #4d6f0e;"/>
      <path d="M111.51,79.99c-2.92-.95-6.02-.74-7.65-.63-6.54.45-12.81,1.8-18.75,3.76,11.13-3.47,20.94-4.5,26.4-3.13Z" style="fill: #4d6f0e;"/>
      <path d="M128.29,89.55c-4.05-1.36-9.9-.24-9.9-.24,2.81,1.86,6.06-1.06,9.9.24Z" style="fill: #4d6f0e;"/>
      <path d="M134.51,97.45c2.26,6.23-1.91,24.62-14.67,44.89-3.6,6.02-7.52,11.21-11.48,15.73-9.94,11.83-22.89,23.42-39.27,32.8-8.3,4.75-43.61,24.97-59.17,11.96,16.05,18.63,50.13,19.35,54.91,19.45,7.59.16,25.8.3,44.01-11.14,30.42-19.11,35.03-54.08,36.03-64.72,2.09-22.43-5.82-40.34-10.36-48.97Z" style="fill: #4d6f0e;"/>
      <path d="M118.39,89.32c-.15-1.88-.71-4.65-2.75-6.81,1.13,1.96.32,5.21,2.75,6.81Z" style="fill: #4d6f0e;"/>
    </g>
    <g id="pink_2" data-name="pink 2">
      <path d="M134.74,97.31c-2.39-6.57-6.17-7.88-6.17-7.88-3.86-1.34-7.12,1.61-9.95-.25-2.43-1.6-1.62-4.85-2.75-6.81-3.45-6.02-26.93-3.32-49.24,8.38-27.35,14.35-40.86,35.9-51.54,52.97-12.33,19.68-13.95,30.56-12.98,39.42.49,4.52,1.53,14.1,8.04,19.54,15.56,13.02,50.88-7.21,59.18-11.96,52.13-29.86,69.57-82.03,65.42-93.42Z" style="fill: #fd969c; stroke: #4d6f0e; stroke-miterlimit: 10; stroke-width: .45px;"/>
    </g>
    <g id="seed_2" data-name="seed 2">
      <path d="M45.74,173.04c1.51.75,1.46,3.69.51,5.61-.99,2.02-3.44,3.93-4.99,3.32-1.61-.63-1.95-3.86-.74-6.05,1.09-1.98,3.71-3.63,5.22-2.88Z" style="fill: #70663b;"/>
      <path d="M42.54,135.15c.82,1.08-.47,3.47-2.02,4.77-1.86,1.56-4.98,2.27-5.89,1.16-.88-1.07.34-3.72,2.15-5.11,1.86-1.44,4.91-1.96,5.77-.82Z" style="fill: #70663b;"/>
      <path d="M54.28,113.87c.99.86-.45,3.86-1.5,5.41-.11.16-2.59,3.76-4.09,3.26-1.24-.41-1.65-3.57-.36-5.79,1.43-2.47,4.94-3.75,5.94-2.88Z" style="fill: #70663b;"/>
      <path d="M77.78,104.53c.78,1.04-.69,3.43-2.17,4.72-1,.87-3.11,2.21-4.18,1.53-1.12-.72-.86-3.54.65-5.16,1.67-1.78,4.89-2.16,5.7-1.08Z" style="fill: #70663b;"/>
      <path d="M93.44,150.59c1.36.59,1.36,3.29.81,5.04-.69,2.21-2.77,4.62-4.29,4.28-1.55-.35-2.41-3.54-1.42-5.92.9-2.17,3.47-4.01,4.89-3.39Z" style="fill: #70663b;"/>
      <path d="M70.07,171.88c1.34.3,1.9,3.17,1.28,5.33-.46,1.63-1.83,3.73-3.14,3.6-1.35-.13-2.29-2.59-1.99-4.59.35-2.35,2.5-4.65,3.85-4.34Z" style="fill: #70663b;"/>
      <path d="M101.84,128.03c1.22.88.8,3.86-.51,5.61-.38.5-1.07,1.02-2.44,2.05-1.81,1.35-2.71,2.03-3.18,1.89-1.21-.37-1.8-3.98-.17-6.58,1.51-2.4,4.95-3.95,6.31-2.97Z" style="fill: #70663b;"/>
      <path d="M101.5,119.11c.58,1.17-.88,2.97-2.15,3.83-1.76,1.2-4.55,1.54-5.29.48-.78-1.13.72-3.92,2.96-4.86,1.57-.66,3.9-.59,4.48.56Z" style="fill: #70663b;"/>
      <path d="M30.69,149.82c.16.54-.47,1.12-2.12,2.64-3.88,3.57-4.03,3.72-4.18,3.64-.83-.46.57-6.45,3.66-7.11,1.07-.23,2.44.15,2.64.84Z" style="fill: #70663b;"/>
      <path d="M59.8,177.45s-1.77-2.68-1.13-4.11c.64-1.43,2.39-5.44,3.75-5.04.54.16.91.29,1.14.55.81.92.43,2.36.35,2.64-.22.77-.53.93-1.64,2.38-.88,1.15-1.65,2.38-2.48,3.57h0Z" style="fill: #70663b;"/>
      <path d="M55.32,177.93c1.88,0,3.97,1.38,3.85,2.88-.11,1.42-2.15,2.41-3.64,2.59-1.89.24-4.28-.63-4.48-2.06-.22-1.51,2.07-3.41,4.27-3.42Z" style="fill: #70663b;"/>
      <path d="M57.01,118.77c.38-.28,6.85-5.18,5.73-7.69-.19-.43-.58-.73-.97-.85-2.35-.72-6.51,4.71-5.66,6.19.1.17.34.42.57.93.24.56.31,1.06.32,1.41Z" style="fill: #70663b;"/>
      <path d="M96.76,108.81c.97-.06,1.84.66,2.24,1.37,1.24,2.22-1.14,6.18-2.76,6.14-1.28-.04-2.65-2.6-2.08-4.75.28-1.08,1.21-2.68,2.6-2.75Z" style="fill: #70663b;"/>
      <path d="M92.14,110.35c.69.09,1.02.97,1.48,2.23.6,1.65,1.54,4.21.36,5.17-.83.67-2.24.16-2.36.11-1.87-.71-2.42-3.19-2.08-4.75.08-.35.21-.63.25-.73.45-.95,1.48-2.14,2.35-2.02Z" style="fill: #70663b;"/>
    </g>
  </g>
</svg>