<?xml version="1.0" encoding="UTF-8"?>
<svg xmlns="http://www.w3.org/2000/svg" viewBox="0 0 275 170.7">
  <g id="lime">
    <g id="citrus_2" data-name="citrus 2">
      <path d="M138.75,119.5c.31-4.05-.92-7.25-2.19-10.23-6.54-15.34-13.01-23.51-13.01-23.51-12.93-16.35-19.4-24.53-29.55-31.92-8.14-5.93-31.89-23.22-58.01-17.19-5.45,1.26-14.37,3.46-20.04,11.72-6.66,9.69-4.91,21.96-4.27,26.44,1.14,7.99,4.05,13.95,6.56,18.39,22.45,39.7,61.81,52.01,61.81,52.01,14.52,4.54,22.81,3.35,26.1,2.72,1.47-.28,14.49-2.96,25.04-14.33,3.15-3.4,7.08-7.74,7.56-14.1Z" style="fill: none; stroke: #5aa420; stroke-miterlimit: 10; stroke-width: 1.04px;"/>
      <path d="M138.75,119.5c.31-4.05-.92-7.25-2.19-10.23-6.54-15.34-13.01-23.51-13.01-23.51-12.93-16.35-19.4-24.53-29.55-31.92-8.14-5.93-31.89-23.22-58.01-17.19-5.45,1.26-14.37,3.46-20.04,11.72-6.66,9.69-4.91,21.96-4.27,26.44,1.14,7.99,4.05,13.95,6.56,18.39,22.45,39.7,61.81,52.01,61.81,52.01,14.52,4.54,22.81,3.35,26.1,2.72,1.47-.28,14.49-2.96,25.04-14.33,3.15-3.4,7.08-7.74,7.56-14.1Z" style="fill: #fffcf3;"/>
      <path d="M68.4,87.21s-39.25-1.47-41.12-3.52-17.14-18.24-1.33-24.65l42.46,28.17Z" style="fill: #abd779;"/>
      <path d="M70.29,93.48s-11.64,18.01-20.83,21.48-30.43-29.14-22.17-28.94c8.26.2,41.18,3.19,41.18,3.19,0,0,3.12,2.33,1.81,4.26Z" style="fill: #abd779;"/>
      <path d="M64.93,103.6c-8.23,10.1-11.35,10.4-11.26,13.88.13,4.89,6.39,8.29,15.32,13.13,7.02,3.81,14.66,7.87,16.95,5.3,2.47-2.77-3.8-10.43-8.31-28.44-1.17-4.66-1.84-8.52-2.22-10.92,0-1.33-.15-2.89-.95-3.25-1.62-.73-4.49,4.11-9.53,10.29Z" style="fill: #abd779;"/>
      <path d="M91.66,137.64s21.2,8.78,24.54-5.98c0,0-34.12-29.95-36.77-36.03,0,0-2.67-2.34-2.23,1.47s10.16,37.73,14.46,40.55Z" style="fill: #abd779;"/>
      <path d="M122.89,102.61s14.46,21.54-3.41,27.83c0,0-19.78-15.21-38.2-34.3,0,0-3.41-4.21,2.73-3.54,6.14.67,38.87,10.01,38.87,10.01Z" style="fill: #abd779;"/>
      <path d="M105.34,72.4s19.31,12.57,16,27.47c0,0-35.93-8.17-38.37-9.07s-.89-3.05-.89-3.05c0,0,20.9-14.91,23.27-15.34Z" style="fill: #abd779;"/>
      <path d="M82.03,56.79s14.33-1.16,19.93,15.03l-21.99,15.97s-3.17.68-3.13-2.43,1.95-27.41,5.19-28.57Z" style="fill: #abd779;"/>
      <path d="M79.29,55.79s-3.35-14.37-28.49-9.03c0,0,15.8,31.44,19.89,36.19,4.09,4.75,4.21-.02,4.21-.02,0,0,4.02-23.94,4.4-27.14Z" style="fill: #abd779;"/>
      <path d="M48.16,47.8s-10.07-9.93-20.82,6.28c0,0-1.76,2.98,38.79,30.05,0,0,3.8,1.85,1.83-2.33s-19.8-34-19.8-34Z" style="fill: #abd779;"/>
    </g>
    <g id="peel_2" data-name="peel 2">
      <path d="M124.47,140.27c-3.96,2.75-9.18,5.78-14.99,7.42-17.61,4.97-35.09-4.45-44.82-9.85-23.82-13.24-55.09-42.02-53.23-72.47.22-3.55.83-11.91,6.44-18.79.37-.45.75-.88,1.14-1.29l-.53-.45c-42.22,56.3,1.15,102.29,1.15,102.29,52.03,44.01,94.19,4.82,104.85-6.84Z" style="fill: #5aa420;"/>
    </g>
  </g>
  <g id="lemon">
    <g id="peel_1" data-name="peel 1">
      <path d="M271.3,38.36c.14,6.67-.3,15.04-2.69,23.15-7.25,24.57-30.09,38.96-42.98,46.84-31.57,19.31-85.45,36.7-117.33,13.21-3.72-2.74-12.4-9.32-15.87-20.84-.23-.76-.42-1.51-.59-2.27l-.87.32c31.05,89.92,112.4,70.05,112.4,70.05,85.42-31.64,73-109.55,67.94-130.47Z" style="fill: #e3ac00;"/>
      <path d="M258.92,6.75c-4.2-3.2-8.56-3.96-12.73-4.52-21.43-2.86-35-.82-35-.82-27.14,4.08-40.71,6.13-56.07,13.13-12.32,5.62-48.27,22.02-60.47,57.54-2.55,7.41-6.56,19.64-1.63,32.21,5.78,14.74,20.43,21.21,25.77,23.58,9.53,4.21,18.13,4.88,24.78,4.97,59.45.81,101.18-37.78,101.18-37.78,15.39-14.23,20.06-25,21.74-29.39.75-1.96,7.19-19.44,2.38-40.01-1.44-6.15-3.36-13.89-9.94-18.9Z" style="fill: none; stroke: #e3ac00; stroke-miterlimit: 10; stroke-width: 1.4px;"/>
    </g>
    <g id="citrus_1" data-name="citrus 1">
      <path d="M258.92,7.15c-4.2-3.2-8.56-3.96-12.73-4.52-21.43-2.86-35-.82-35-.82-27.14,4.08-40.71,6.13-56.07,13.13-12.32,5.62-48.27,22.02-60.47,57.54-2.55,7.41-6.56,19.64-1.63,32.21,5.78,14.74,20.43,21.21,25.77,23.58,9.53,4.21,18.13,4.88,24.78,4.97,59.45.81,101.18-37.78,101.18-37.78,15.39-14.23,20.06-25,21.74-29.39.75-1.96,7.19-19.44,2.38-40.01-1.44-6.15-3.36-13.89-9.94-18.9Z" style="fill: #fffcf3;"/>
      <path d="M173.31,70.43s-29.83,46.02-33.41,46.84-32.22,7.81-27.84-15.61l61.26-31.23Z" style="fill: #f4e38e;"/>
      <path d="M181.51,72.55s11.28,26.53,8.46,39.96c-2.82,13.44-53.67,16.13-47.51,6.37,6.16-9.77,33.1-47.14,33.1-47.14,0,0,4.78-2.11,5.95.81Z" style="fill: #f4e38e;"/>
      <path d="M188.7,86.03c5.1,16.93,3.18,20.87,7.05,23.19,5.43,3.26,13.64-1.88,25.34-9.2,9.21-5.76,19.13-12.08,17.98-16.62-1.25-4.89-14.11-2.73-37-9.89-5.92-1.85-10.62-3.74-13.51-4.96-1.45-.93-3.26-1.84-4.23-1.13-1.96,1.43,1.26,8.26,4.37,18.61Z" style="fill: #f4e38e;"/>
      <path d="M245.05,77.75s24.82-19.28,11.13-33.6c0,0-57.21,19.98-65.75,18.92,0,0-4.47,1.56,0,3.7s48.46,14.16,54.62,10.98Z" style="fill: #f4e38e;"/>
      <path d="M229.3,15.86s33.9-2.3,27.9,23.52c0,0-30.81,13.09-64.88,21.84,0,0-7.05,1.15-1.9-5.75,5.15-6.9,38.88-39.61,38.88-39.61Z" style="fill: #f4e38e;"/>
      <path d="M183.72,15.81s27.6-14.38,41.47,0c0,0-34.75,37.36-37.49,39.66s-3.97-1.06-3.97-1.06c0,0-1.24-35.47,0-38.6Z" style="fill: #f4e38e;"/>
      <path d="M149.94,32.85s9.04-17.99,30.72-13.4l1.61,37.51s-1.53,4.27-4.9,2.06-28.5-21.48-27.43-26.17Z" style="fill: #f4e38e;"/>
      <path d="M146.87,35.43s-18.08-6.01-30.34,27.86c0,0,45.66,3.01,53.78,1.42,8.12-1.58,3-5.06,3-5.06,0,0-23.23-21.53-26.44-24.22Z" style="fill: #f4e38e;"/>
      <path d="M115.77,67.17s-18.08,5.14-8.12,29.35c0,0,1.99,4.19,60.67-25.52,0,0,4.75-3.27-1.23-3.83s-51.33,0-51.33,0Z" style="fill: #f4e38e;"/>
    </g>
  </g>
</svg>